<svg width="20" height="20" viewBox="0 0 20 20" fill="none" xmlns="http://www.w3.org/2000/svg">
<path d="M9.74758 6.49849C7.95724 6.49849 6.49619 7.95954 6.49619 9.74988C6.49619 11.5402 7.95724 13.0013 9.74758 13.0013C11.5379 13.0013 12.999 11.5402 12.999 9.74988C12.999 7.95954 11.5379 6.49849 9.74758 6.49849ZM19.4993 9.74988C19.4993 8.40347 19.5115 7.06925 19.4359 5.72528C19.3603 4.16423 19.0041 2.77879 17.8626 1.63727C16.7187 0.493311 15.3357 0.139635 13.7746 0.0640213C12.4282 -0.0115923 11.094 0.00060344 9.75002 0.00060344C8.40361 0.00060344 7.06939 -0.0115923 5.72542 0.0640213C4.16437 0.139635 2.77893 0.49575 1.63741 1.63727C0.493449 2.78123 0.139772 4.16423 0.0641586 5.72528C-0.011455 7.07169 0.000740769 8.40591 0.000740769 9.74988C0.000740769 11.0938 -0.011455 12.4305 0.0641586 13.7745C0.139772 15.3355 0.495888 16.721 1.63741 17.8625C2.78137 19.0064 4.16437 19.3601 5.72542 19.4357C7.07183 19.5113 8.40604 19.4992 9.75002 19.4992C11.0964 19.4992 12.4306 19.5113 13.7746 19.4357C15.3357 19.3601 16.7211 19.004 17.8626 17.8625C19.0066 16.7185 19.3603 15.3355 19.4359 13.7745C19.5139 12.4305 19.4993 11.0963 19.4993 9.74988ZM9.74758 14.7526C6.97914 14.7526 4.74488 12.5183 4.74488 9.74988C4.74488 6.98144 6.97914 4.74719 9.74758 4.74719C12.516 4.74719 14.7503 6.98144 14.7503 9.74988C14.7503 12.5183 12.516 14.7526 9.74758 14.7526ZM14.9552 5.71065C14.3088 5.71065 13.7868 5.18867 13.7868 4.5423C13.7868 3.89592 14.3088 3.37394 14.9552 3.37394C15.6015 3.37394 16.1235 3.89592 16.1235 4.5423C16.1237 4.69578 16.0936 4.8478 16.035 4.98963C15.9763 5.13147 15.8903 5.26035 15.7817 5.36888C15.6732 5.47741 15.5443 5.56346 15.4025 5.62211C15.2607 5.68075 15.1086 5.71084 14.9552 5.71065Z" fill="#31352B"/>
</svg>
