<svg width="10" height="21" viewBox="0 0 10 21" fill="none" xmlns="http://www.w3.org/2000/svg">
<path d="M9.22605 0.565908C9.30623 0.57211 9.38021 0.578305 9.44744 0.584269L9.38975 2.8691C9.33268 2.8687 9.27152 2.86829 9.20675 2.86788C8.79711 2.8653 8.24265 2.86272 7.66377 2.86272C6.97808 2.86272 6.4227 3.01939 6.07614 3.46205C5.75479 3.8725 5.71344 4.41533 5.71344 4.89493V7.42708V7.92708H6.21344H9.45238L9.33586 10.3949H6.21344H5.71344V10.8949V20.0264H3.04678V10.8949V10.3949H2.54678H0.5V7.92708H2.54678H3.04678V7.42708V4.46511C3.04678 3.40713 3.38774 2.42519 4.08926 1.70989C4.78659 0.998861 5.89052 0.500122 7.51762 0.500122C8.20387 0.500122 8.80104 0.533036 9.22605 0.565908Z" fill="#31352B" stroke="black"/>
</svg>
